<svg width="248" height="249" viewBox="0 0 248 249" fill="none" xmlns="http://www.w3.org/2000/svg">
<path d="M160 124.5C160 164.265 127.765 196.5 88 196.5C48.2355 196.5 16 164.265 16 124.5C16 84.7355 48.2355 52.5 88 52.5C127.765 52.5 160 84.7355 160 124.5ZM44.8 124.5C44.8 148.359 64.1413 167.7 88 167.7C111.859 167.7 131.2 148.359 131.2 124.5C131.2 100.641 111.859 81.3 88 81.3C64.1413 81.3 44.8 100.641 44.8 124.5Z" fill="white"/>
<path d="M88.3073 191.5C88.2857 191.5 88.264 191.499 88.2423 191.5C88.2352 191.5 88.2281 191.5 88.2211 191.5C88.1929 191.498 88.1646 191.497 88.1363 191.497C83.0682 191.358 79 187.204 79 182.1C79 176.997 83.0682 172.842 88.1363 172.704C88.1748 172.703 88.2131 172.701 88.2514 172.699C94.4956 172.667 100.675 171.421 106.445 169.031C112.293 166.609 117.607 163.058 122.083 158.583C126.558 154.107 130.109 148.793 132.531 142.945C134.953 137.097 136.2 130.83 136.2 124.5C136.2 118.17 134.953 111.903 132.531 106.055C130.109 100.207 126.558 94.8932 122.083 90.4175C117.607 85.9417 112.293 82.3913 106.445 79.969C102.143 78.187 97.614 77.0413 93 76.56V57.6868C100.087 58.2172 107.055 59.8724 113.64 62.6001C121.769 65.9671 129.155 70.9023 135.376 77.1238C141.598 83.3454 146.533 90.7314 149.9 98.8602C153.267 106.989 155 115.701 155 124.5C155 133.299 153.267 142.011 149.9 150.14C146.533 158.269 141.598 165.655 135.376 171.876C129.155 178.098 121.769 183.033 113.64 186.4C105.725 189.679 97.2559 191.408 88.6932 191.496C88.6713 191.497 88.6493 191.497 88.6273 191.498C88.5518 191.499 88.4761 191.5 88.4 191.5C88.385 191.5 88.37 191.5 88.3548 191.5C88.3391 191.5 88.3233 191.5 88.3073 191.5Z" fill="#0A0A0A" stroke="white" stroke-width="10" stroke-linejoin="round"/>
<path d="M232 124.5C232 164.265 199.765 196.5 160 196.5C120.235 196.5 88 164.265 88 124.5C88 84.7355 120.235 52.5 160 52.5C199.765 52.5 232 84.7355 232 124.5ZM116.8 124.5C116.8 148.359 136.141 167.7 160 167.7C183.859 167.7 203.2 148.359 203.2 124.5C203.2 100.641 183.859 81.3 160 81.3C136.141 81.3 116.8 100.641 116.8 124.5Z" fill="white"/>
<g clip-path="url(#clip0_1384_55)">
<path d="M88 57.5C96.7986 57.5 105.511 59.233 113.64 62.6001C121.769 65.9671 129.155 70.9023 135.376 77.1238C141.598 83.3454 146.533 90.7314 149.9 98.8602C153.267 106.989 155 115.701 155 124.5C155 133.299 153.267 142.011 149.9 150.14C146.533 158.269 141.598 165.655 135.376 171.876C129.155 178.098 121.769 183.033 113.64 186.4C107.055 189.128 100.087 190.783 93 191.313V172.44C97.614 171.959 102.143 170.813 106.445 169.031C112.293 166.609 117.607 163.058 122.083 158.583C126.558 154.107 130.109 148.793 132.531 142.945C134.953 137.097 136.2 130.83 136.2 124.5C136.2 118.17 134.953 111.903 132.531 106.055C130.109 100.207 126.558 94.8932 122.083 90.4175C117.607 85.9417 112.293 82.3913 106.445 79.969C100.597 77.5467 94.3297 76.3 88 76.3C83.1613 76.3 79 72.2252 79 66.9C79 61.5748 83.1613 57.5 88 57.5Z" fill="#0A0A0A" stroke="white" stroke-width="10"/>
</g>
<defs>
<clipPath id="clip0_1384_55">
<rect width="86" height="71" fill="white" transform="translate(74 52.5)"/>
</clipPath>
</defs>
</svg>
