<svg width="960" height="672" viewBox="0 0 960 672" fill="none" xmlns="http://www.w3.org/2000/svg">
<rect width="960" height="672.001" fill="#0A0A0A"/>
<path d="M336 48C298.179 48 260.729 55.4493 225.787 69.9227C190.845 84.396 159.097 105.61 132.353 132.353C105.61 159.096 84.3961 190.845 69.9227 225.787C55.4493 260.729 48 298.179 48 336C48 373.821 55.4493 411.271 69.9227 446.213C84.396 481.155 105.61 512.903 132.353 539.647C159.097 566.39 190.845 587.604 225.787 602.077C260.729 616.551 298.179 624 336 624L336 508.8C313.308 508.8 290.837 504.33 269.872 495.646C248.907 486.962 229.858 474.234 213.812 458.188C197.766 442.142 185.038 423.093 176.354 402.128C167.67 381.163 163.2 358.692 163.2 336C163.2 313.308 167.67 290.837 176.354 269.872C185.038 248.907 197.766 229.858 213.812 213.812C229.858 197.766 248.907 185.038 269.872 176.354C290.837 167.67 313.308 163.2 336 163.2L336 48Z" fill="white"/>
<mask id="path-2-inside-1_1378_74" fill="white">
<path fill-rule="evenodd" clip-rule="evenodd" d="M337.04 623.998C336.693 623.999 336.347 624 336 624V623.979C304.928 623.132 280 597.677 280 566.401C280 535.124 304.928 509.67 336 508.823V508.8C358.692 508.8 381.163 504.33 402.128 495.646C423.093 486.962 442.142 474.234 458.188 458.188C474.234 442.142 486.962 423.093 495.646 402.128C504.33 381.163 508.8 358.692 508.8 336C508.8 313.308 504.33 290.837 495.646 269.872C486.962 248.907 474.234 229.858 458.188 213.812C442.142 197.766 423.093 185.038 402.128 176.354C381.163 167.67 358.692 163.2 336 163.2L336 48C373.821 48 411.271 55.4493 446.213 69.9227C481.155 84.396 512.903 105.61 539.647 132.353C566.39 159.097 587.604 190.845 602.077 225.787C616.551 260.729 624 298.179 624 336C624 373.821 616.551 411.271 602.077 446.213C587.604 481.155 566.39 512.903 539.647 539.647C512.903 566.39 481.155 587.604 446.213 602.077C412.189 616.17 375.787 623.604 338.98 623.985C338.521 623.995 338.061 624.001 337.6 624.001C337.413 624.001 337.226 624 337.04 623.998Z"/>
</mask>
<path fill-rule="evenodd" clip-rule="evenodd" d="M337.04 623.998C336.693 623.999 336.347 624 336 624V623.979C304.928 623.132 280 597.677 280 566.401C280 535.124 304.928 509.67 336 508.823V508.8C358.692 508.8 381.163 504.33 402.128 495.646C423.093 486.962 442.142 474.234 458.188 458.188C474.234 442.142 486.962 423.093 495.646 402.128C504.33 381.163 508.8 358.692 508.8 336C508.8 313.308 504.33 290.837 495.646 269.872C486.962 248.907 474.234 229.858 458.188 213.812C442.142 197.766 423.093 185.038 402.128 176.354C381.163 167.67 358.692 163.2 336 163.2L336 48C373.821 48 411.271 55.4493 446.213 69.9227C481.155 84.396 512.903 105.61 539.647 132.353C566.39 159.097 587.604 190.845 602.077 225.787C616.551 260.729 624 298.179 624 336C624 373.821 616.551 411.271 602.077 446.213C587.604 481.155 566.39 512.903 539.647 539.647C512.903 566.39 481.155 587.604 446.213 602.077C412.189 616.17 375.787 623.604 338.98 623.985C338.521 623.995 338.061 624.001 337.6 624.001C337.413 624.001 337.226 624 337.04 623.998Z" fill="#0A0A0A"/>
<path d="M336 624H296C296 646.091 313.909 664 336 664V624ZM337.04 623.998L337.419 584C337.246 583.998 337.072 583.998 336.899 583.998L337.04 623.998ZM336 623.979H376C376 602.312 358.749 584.585 337.091 583.994L336 623.979ZM336 508.823L337.091 548.808C358.749 548.217 376 530.489 376 508.823H336ZM336 508.8V468.8C313.909 468.8 296 486.709 296 508.8H336ZM402.128 176.354L386.82 213.309L386.82 213.309L402.128 176.354ZM336 163.2L296 163.2C296 185.291 313.909 203.2 336 203.2V163.2ZM336 48V8C325.391 8 315.217 12.2143 307.716 19.7157C300.214 27.2172 296 37.3913 296 48L336 48ZM539.647 132.353L511.362 160.638L511.362 160.638L539.647 132.353ZM539.647 539.647L567.931 567.931L567.931 567.931L539.647 539.647ZM446.213 602.077L430.906 565.122L430.906 565.122L446.213 602.077ZM338.98 623.985L338.566 583.987C338.39 583.989 338.214 583.992 338.038 583.996L338.98 623.985ZM336 664C336.398 664 336.792 663.999 337.181 663.998L336.899 583.998C336.594 583.999 336.295 584 336 584V664ZM296 623.979V624H376V623.979H296ZM337.091 583.994C327.618 583.736 320 575.951 320 566.401H240C240 619.403 282.239 662.528 334.909 663.964L337.091 583.994ZM320 566.401C320 556.85 327.618 549.066 337.091 548.808L334.91 468.837C282.239 470.274 240 513.398 240 566.401H320ZM296 508.8V508.823H376V508.8H296ZM386.82 458.691C370.708 465.365 353.44 468.8 336 468.8V548.8C363.945 548.8 391.617 543.296 417.435 532.602L386.82 458.691ZM429.904 429.904C417.572 442.235 402.932 452.017 386.82 458.691L417.435 532.602C443.253 521.907 466.712 506.233 486.472 486.472L429.904 429.904ZM458.691 386.82C452.017 402.932 442.235 417.572 429.904 429.904L486.472 486.472C506.233 466.712 521.907 443.253 532.602 417.435L458.691 386.82ZM468.8 336C468.8 353.44 465.365 370.708 458.691 386.82L532.602 417.435C543.296 391.617 548.8 363.945 548.8 336H468.8ZM458.691 285.18C465.365 301.292 468.8 318.56 468.8 336H548.8C548.8 308.055 543.296 280.383 532.602 254.565L458.691 285.18ZM429.904 242.096C442.235 254.428 452.017 269.068 458.691 285.18L532.602 254.565C521.907 228.747 506.233 205.288 486.472 185.528L429.904 242.096ZM386.82 213.309C402.932 219.983 417.572 229.765 429.904 242.096L486.472 185.528C466.712 165.767 443.253 150.093 417.435 139.398L386.82 213.309ZM336 203.2C353.44 203.2 370.708 206.635 386.82 213.309L417.435 139.398C391.617 128.704 363.945 123.2 336 123.2V203.2ZM296 48L296 163.2L376 163.2L376 48L296 48ZM461.52 32.9675C421.725 16.484 379.074 8 336 8V88C368.568 88 400.817 94.4147 430.905 106.878L461.52 32.9675ZM567.931 104.069C537.473 73.6114 501.315 49.4511 461.52 32.9675L430.905 106.878C460.994 119.341 488.334 137.609 511.362 160.638L567.931 104.069ZM639.033 210.48C622.549 170.685 598.389 134.527 567.931 104.069L511.362 160.638C534.391 183.666 552.659 211.006 565.122 241.095L639.033 210.48ZM664 336C664 292.926 655.516 250.275 639.033 210.48L565.122 241.095C577.585 271.183 584 303.432 584 336H664ZM639.033 461.52C655.516 421.725 664 379.074 664 336H584C584 368.568 577.585 400.817 565.122 430.905L639.033 461.52ZM567.931 567.931C598.389 537.473 622.549 501.315 639.033 461.52L565.122 430.905C552.659 460.994 534.391 488.334 511.362 511.362L567.931 567.931ZM461.52 639.033C501.315 622.549 537.473 598.389 567.931 567.931L511.362 511.362C488.334 534.391 460.994 552.659 430.906 565.122L461.52 639.033ZM339.394 663.982C381.313 663.549 422.771 655.083 461.52 639.033L430.906 565.122C401.607 577.258 370.261 583.659 338.566 583.987L339.394 663.982ZM338.038 583.996C337.893 583.999 337.747 584.001 337.6 584.001V664.001C338.375 664.001 339.149 663.992 339.922 663.973L338.038 583.996ZM337.6 584.001C337.544 584.001 337.483 584.001 337.419 584L336.66 663.996C336.969 663.999 337.282 664.001 337.6 664.001V584.001Z" fill="white" mask="url(#path-2-inside-1_1378_74)"/>
<path d="M912 336C912 495.058 783.058 624 624 624C464.942 624 336 495.058 336 336C336 176.942 464.942 48 624 48C783.058 48 912 176.942 912 336ZM451.2 336C451.2 431.435 528.565 508.8 624 508.8C719.435 508.8 796.8 431.435 796.8 336C796.8 240.565 719.435 163.2 624 163.2C528.565 163.2 451.2 240.565 451.2 336Z" fill="white"/>
<g clip-path="url(#clip0_1378_74)">
<mask id="path-5-inside-2_1378_74" fill="white">
<path fill-rule="evenodd" clip-rule="evenodd" d="M336 48C373.821 48 411.271 55.4493 446.213 69.9227C481.155 84.396 512.903 105.61 539.647 132.353C566.39 159.097 587.604 190.845 602.077 225.787C616.551 260.729 624 298.179 624 336C624 373.821 616.551 411.271 602.077 446.213C587.604 481.155 566.39 512.903 539.647 539.647C512.903 566.39 481.155 587.604 446.213 602.077C411.271 616.551 373.821 624 336 624L336 508.8C358.692 508.8 381.163 504.33 402.128 495.646C423.093 486.962 442.142 474.234 458.188 458.188C474.234 442.142 486.962 423.093 495.646 402.128C504.33 381.163 508.8 358.692 508.8 336C508.8 313.308 504.33 290.837 495.646 269.872C486.962 248.907 474.234 229.858 458.188 213.812C442.142 197.766 423.093 185.038 402.128 176.354C381.163 167.67 358.692 163.2 336 163.2C305.072 163.2 280 137.412 280 105.6C280 73.7884 305.072 48 336 48Z"/>
</mask>
<path fill-rule="evenodd" clip-rule="evenodd" d="M336 48C373.821 48 411.271 55.4493 446.213 69.9227C481.155 84.396 512.903 105.61 539.647 132.353C566.39 159.097 587.604 190.845 602.077 225.787C616.551 260.729 624 298.179 624 336C624 373.821 616.551 411.271 602.077 446.213C587.604 481.155 566.39 512.903 539.647 539.647C512.903 566.39 481.155 587.604 446.213 602.077C411.271 616.551 373.821 624 336 624L336 508.8C358.692 508.8 381.163 504.33 402.128 495.646C423.093 486.962 442.142 474.234 458.188 458.188C474.234 442.142 486.962 423.093 495.646 402.128C504.33 381.163 508.8 358.692 508.8 336C508.8 313.308 504.33 290.837 495.646 269.872C486.962 248.907 474.234 229.858 458.188 213.812C442.142 197.766 423.093 185.038 402.128 176.354C381.163 167.67 358.692 163.2 336 163.2C305.072 163.2 280 137.412 280 105.6C280 73.7884 305.072 48 336 48Z" fill="#0A0A0A"/>
<path d="M539.647 132.353L511.362 160.638L511.362 160.638L539.647 132.353ZM539.647 539.647L567.931 567.931L567.931 567.931L539.647 539.647ZM336 624L296 624L296 664H336V624ZM336 508.8V468.8H296L296 508.8L336 508.8ZM402.128 176.354L386.82 213.309L386.82 213.309L402.128 176.354ZM461.52 32.9675C421.725 16.484 379.074 8 336 8V88C368.568 88 400.817 94.4147 430.905 106.878L461.52 32.9675ZM567.931 104.069C537.473 73.6114 501.315 49.4511 461.52 32.9675L430.905 106.878C460.994 119.341 488.334 137.609 511.362 160.638L567.931 104.069ZM639.033 210.48C622.549 170.685 598.389 134.527 567.931 104.069L511.362 160.638C534.391 183.666 552.659 211.006 565.122 241.095L639.033 210.48ZM664 336C664 292.926 655.516 250.275 639.033 210.48L565.122 241.095C577.585 271.183 584 303.432 584 336H664ZM639.033 461.52C655.516 421.725 664 379.074 664 336H584C584 368.568 577.585 400.817 565.122 430.905L639.033 461.52ZM567.931 567.931C598.389 537.473 622.549 501.315 639.033 461.52L565.122 430.905C552.659 460.994 534.391 488.334 511.362 511.362L567.931 567.931ZM461.52 639.033C501.315 622.549 537.473 598.389 567.931 567.931L511.362 511.362C488.334 534.391 460.994 552.659 430.906 565.122L461.52 639.033ZM336 664C379.074 664 421.725 655.516 461.52 639.033L430.906 565.122C400.817 577.585 368.568 584 336 584V664ZM296 508.8L296 624L376 624L376 508.8L296 508.8ZM386.82 458.691C370.708 465.365 353.44 468.8 336 468.8V548.8C363.945 548.8 391.617 543.296 417.435 532.602L386.82 458.691ZM429.904 429.904C417.572 442.235 402.932 452.017 386.82 458.691L417.435 532.602C443.253 521.907 466.712 506.233 486.472 486.472L429.904 429.904ZM458.691 386.82C452.017 402.932 442.235 417.572 429.904 429.904L486.472 486.472C506.233 466.712 521.907 443.253 532.602 417.435L458.691 386.82ZM468.8 336C468.8 353.44 465.365 370.708 458.691 386.82L532.602 417.435C543.296 391.617 548.8 363.945 548.8 336H468.8ZM458.691 285.18C465.365 301.292 468.8 318.56 468.8 336H548.8C548.8 308.055 543.296 280.383 532.602 254.565L458.691 285.18ZM429.904 242.096C442.235 254.428 452.017 269.068 458.691 285.18L532.602 254.565C521.907 228.747 506.233 205.288 486.472 185.528L429.904 242.096ZM386.82 213.309C402.932 219.983 417.572 229.765 429.904 242.096L486.472 185.528C466.712 165.767 443.253 150.093 417.435 139.398L386.82 213.309ZM336 203.2C353.44 203.2 370.708 206.635 386.82 213.309L417.435 139.398C391.617 128.704 363.945 123.2 336 123.2V203.2ZM336 123.2C328.218 123.2 320 116.39 320 105.6H240C240 158.433 281.926 203.2 336 203.2V123.2ZM320 105.6C320 94.8101 328.218 88 336 88V8C281.926 8 240 52.7667 240 105.6H320Z" fill="white" mask="url(#path-5-inside-2_1378_74)"/>
</g>
<defs>
<clipPath id="clip0_1378_74">
<rect width="344" height="284" fill="white" transform="translate(280 48)"/>
</clipPath>
</defs>
</svg>
