<svg width="288" height="288" viewBox="0 0 288 288" fill="none" xmlns="http://www.w3.org/2000/svg">
<rect width="288" height="288" rx="144" fill="#EBF0F4"/>
<path d="M108 216C117.455 216 126.818 214.138 135.553 210.519C144.289 206.901 152.226 201.598 158.912 194.912C165.598 188.226 170.901 180.289 174.519 171.553C178.138 162.818 180 153.455 180 144C180 134.545 178.138 125.182 174.519 116.447C170.901 107.711 165.598 99.7741 158.912 93.0883C152.226 86.4025 144.289 81.099 135.553 77.4807C126.818 73.8623 117.455 72 108 72L108 100.8C113.673 100.8 119.291 101.917 124.532 104.088C129.773 106.259 134.536 109.441 138.547 113.453C142.559 117.464 145.741 122.227 147.912 127.468C150.083 132.709 151.2 138.327 151.2 144C151.2 149.673 150.083 155.291 147.912 160.532C145.741 165.773 142.559 170.536 138.547 174.547C134.536 178.559 129.773 181.741 124.532 183.912C119.291 186.083 113.673 187.2 108 187.2L108 216Z" fill="#5D5F61"/>
<path d="M108 72C98.5448 72 89.1822 73.8623 80.4468 77.4807C71.7114 81.099 63.7741 86.4025 57.0883 93.0883C50.4025 99.7741 45.099 107.711 41.4807 116.447C37.8623 125.182 36 134.545 36 144C36 153.455 37.8623 162.818 41.4807 171.553C45.099 180.289 50.4025 188.226 57.0883 194.912C63.7741 201.598 71.7114 206.901 80.4468 210.519C89.1822 214.138 98.5448 216 108 216L108 187.2C102.327 187.2 96.7093 186.083 91.4681 183.912C86.2268 181.741 81.4645 178.558 77.453 174.547C73.4415 170.536 70.2594 165.773 68.0884 160.532C65.9174 155.291 64.8 149.673 64.8 144C64.8 138.327 65.9174 132.709 68.0884 127.468C70.2594 122.227 73.4415 117.464 77.453 113.453C81.4645 109.441 86.2268 106.259 91.4681 104.088C96.7093 101.917 102.327 100.8 108 100.8L108 72Z" fill="#BABEC1"/>
<circle cx="108.398" cy="201.597" r="14.4" fill="#5D5F61"/>
<path d="M252 144C252 183.765 219.765 216 180 216C140.235 216 108 183.765 108 144C108 104.235 140.235 72 180 72C219.765 72 252 104.235 252 144ZM136.8 144C136.8 167.859 156.141 187.2 180 187.2C203.859 187.2 223.2 167.859 223.2 144C223.2 120.141 203.859 100.8 180 100.8C156.141 100.8 136.8 120.141 136.8 144Z" fill="#BABEC1"/>
<g clip-path="url(#clip0_1332_781)">
<path d="M108 216C117.455 216 126.818 214.138 135.553 210.519C144.289 206.901 152.226 201.598 158.912 194.912C165.598 188.226 170.901 180.289 174.519 171.553C178.138 162.818 180 153.455 180 144C180 134.545 178.138 125.182 174.519 116.447C170.901 107.711 165.598 99.7741 158.912 93.0883C152.226 86.4025 144.289 81.099 135.553 77.4807C126.818 73.8623 117.455 72 108 72L108 100.8C113.673 100.8 119.291 101.917 124.532 104.088C129.773 106.259 134.536 109.441 138.547 113.453C142.559 117.464 145.741 122.227 147.912 127.468C150.083 132.709 151.2 138.327 151.2 144C151.2 149.673 150.083 155.291 147.912 160.532C145.741 165.773 142.559 170.536 138.547 174.547C134.536 178.559 129.773 181.741 124.532 183.912C119.291 186.083 113.673 187.2 108 187.2L108 216Z" fill="#5D5F61"/>
</g>
<ellipse cx="107.998" cy="86.4" rx="14" ry="14.4" fill="#5D5F61"/>
<defs>
<clipPath id="clip0_1332_781">
<rect width="72" height="71" fill="white" transform="translate(108 72)"/>
</clipPath>
</defs>
</svg>
